<?xml version="1.0" encoding="UTF-8" standalone="no"?><!DOCTYPE svg PUBLIC "-//W3C//DTD SVG 1.1//EN" "http://www.w3.org/Graphics/SVG/1.1/DTD/svg11.dtd"><svg width="100%" height="100%" viewBox="0 0 508 612" version="1.1" xmlns="http://www.w3.org/2000/svg" xmlns:xlink="http://www.w3.org/1999/xlink" xml:space="preserve" xmlns:serif="http://www.serif.com/" style="fill-rule:evenodd;clip-rule:evenodd;stroke-linejoin:round;stroke-miterlimit:2;"><rect id="Artboard1" x="0" y="0" width="507.736" height="611.623" style="fill:none;"/><clipPath id="_clip1"><rect x="0" y="0" width="507.736" height="611.623"/></clipPath><g clip-path="url(#_clip1)"><path d="M39.128,166.343c-0.108,3.354 0.216,6.702 0.973,9.972c2.083,9.006 4.104,31.659 -21.167,50.039c-22,16 -19.532,25.937 -14.698,33.144c2.38,3.549 5.82,6.26 9.749,7.938c2.471,1.055 5.872,2.943 7.949,5.918c1.334,1.911 0.727,5.818 1,8c1.864,14.917 -16,12 2,29c0,0 -17,11 -9,23c8,12 5,20 3,30c-2,10 -6,35 22,45c28,10 61.931,7.419 73,9c14,2 48,20 52,46c4,26 4,34 4,34c0,0 4,25 -31,48c-35,23 -10,33 -10,33c0,0 28.449,19.828 175,-40.573c23.526,-9.696 33.426,-14.047 58.345,-8.895c11.005,2.275 23.057,4.603 34.251,6.418c8.59,1.393 14.686,-8.1 9.779,-15.285c-18.959,-27.758 -61.762,-97.689 -64.375,-131.665c0,0 95.5,-14.5 98.5,-101.5c3.21,-93.079 -20.5,-127.5 -20.5,-127.5c0,0 24,8 37,-5c11.039,-11.039 25.683,-43.712 4.132,-86.383c-16.575,-32.816 -52.632,-44.117 -85.632,-20.117c-0.459,0.334 -4.401,-5.691 -14,-15c-7.444,-7.219 -20.971,-7.079 -30.762,-10.489c-6.59,-2.295 -15.083,-5.015 -25.738,-8.011c-27.984,-7.87 -110,-33 -187,13c-12.5,7.467 -36.5,39.5 -36.5,39.5c0,0 -36,28 -42,90l-0.306,9.489Z" style="fill-rule:nonzero;"/><path d="M471.465,100.719c-0,0 56.969,15.134 29.969,39.134c-0,0 19.274,-22.013 -29.363,-32.007" style="fill-rule:nonzero;"/><path d="M431.37,161.571c0,0 4.563,21.783 21.563,23.783c17,2 2,6 2,6c0,0 -14,3 -29,-15c-15,-18 -9,-23 -9,-23l14.437,8.217Z" style="fill-rule:nonzero;"/><path d="M459.328,151.673c38.894,51.819 2.105,71.181 2.105,71.181c44,-17 0.891,-75.381 0.891,-75.381" style="fill-rule:nonzero;"/><path d="M447.803,159.967c-0,-0 19.631,37.887 8.631,53.887c-0,-0 12.717,10.225 -2.642,-56.887c-0,-0 26.642,67.887 -6.358,65.887c-0,-0 47,20 -0,-83" style="fill-rule:nonzero;"/><path d="M329.556,376.448c-0,0 117.749,30.158 110.878,-104.595c-0,0 21.394,145.412 -119.716,102.278" style="fill-rule:nonzero;"/><path d="M359.479,382.906c-5.185,-1.761 48.307,10.207 49.455,58.447c-0,0 1,19 -14,21c-15,2 -28.5,-14.5 -17.5,-31.5c11,-17 31.5,6.5 17.5,23.5c-0,0 13.5,-7.5 5.5,-25.5c-9.354,-21.048 -44.5,3.5 -27.5,26.5c17,23 36,2 36,2c-0,0 24.56,-34.759 -24.721,-78.38c-49.279,-43.62 -24.734,3.933 -24.734,3.933" style="fill-rule:nonzero;"/><path d="M470.276,127.909c-0,-0 61.342,22.117 -0,-34.219c-0,-0 71.566,51.999 -2.388,42.332c-73.954,-9.668 2.388,-8.113 2.388,-8.113" style="fill-rule:nonzero;"/><path d="M450.586,52.55c0,-0 22.848,9.304 21.848,23.304c0,-0 -8.757,-16.362 -16.083,-16.255c-7.327,0.107 -5.765,-7.049 -5.765,-7.049" style="fill-rule:nonzero;"/><path d="M459.434,236.854c-0,-0 32,-13 -3,-97c-0,-0 15.254,27.917 12.353,62.572c-0.923,11.022 -3.682,22.725 -9.353,34.428" style="fill-rule:nonzero;"/><path d="M450.837,147.473l17.597,55.381c0,-0 9,-24 -12,-63c-21,-39 -5.597,7.619 -5.597,7.619" style="fill-rule:nonzero;"/><path d="M464.329,144.03c0,-0 22.504,-7.172 7.804,-32.174c0,-0 9.3,23.998 -10.7,31.998" style="fill-rule:nonzero;"/><path d="M403.321,35.705c0,0 37.112,-5.852 44.112,9.148c0,0 -12,-25 -51.155,-7.53" style="fill-rule:nonzero;"/><path d="M264.174,251.375c-0,0 -26.594,38.811 -59.452,96.067l13.607,-13.254l1.295,1.763c-0,0 -72.502,74.98 33.974,174.835l1.015,-23.006c-0,0 1.245,24.604 7.886,34.383c-0,0 -0.993,-5.786 1.57,-8.211l0.359,7.88c-0,0 33.596,62.729 32.277,89.757c-0,0 26.549,-65.109 2.465,-89.763l-0.331,-1.929l8.707,4.462c-0,0 -9.712,-79.732 -55.421,-85.785c-0,0 18.984,0.713 25.596,4.541c-0,0 -2.618,-9.476 -16.147,-13.111c-0,0 6.749,-1.158 9.808,-0.691c-0,0 -14.642,-67.966 -15.8,-74.716c-1.158,-6.749 -12.262,-7.823 -12.262,-7.823c-0,0 8.844,-0.524 9.974,0.275c-0,0 0.354,-26.863 -17.362,-31.764c-0,0 -22.555,59.459 18.345,135.824c-0,0 43.021,82.95 40.819,93.254c-0,0 -23.097,-53.61 -41.424,-85.209c-18.327,-31.597 -39.273,-72.673 -24.735,-126.786c14.537,-54.113 39.727,-83.749 39.727,-83.749l-4.49,2.756Z" style="fill:#a7d200;fill-rule:nonzero;"/></g></svg>